<svg xmlns="http://www.w3.org/2000/svg" version="1.1" xmlns:xlink="http://www.w3.org/1999/xlink" xmlns:svgjs="http://svgjs.dev/svgjs" width="1000" height="688" viewBox="0 0 1000 688"><g transform="matrix(1,0,0,1,-0.2633312245575894,0.2790568722351736)"><svg viewBox="0 0 359 247" data-background-color="#0a1627" preserveAspectRatio="xMidYMid meet" height="688" width="1000" xmlns="http://www.w3.org/2000/svg" xmlns:xlink="http://www.w3.org/1999/xlink"><g id="tight-bounds" transform="matrix(1,0,0,1,0.09472616194688044,-0.09997365579205564)"><svg viewBox="0 0 358.8107379284369 247.19999999999996" height="247.19999999999996" width="358.8107379284369"><g><svg viewBox="0 0 358.8107379284369 247.19999999999996" height="247.19999999999996" width="358.8107379284369"><g><svg viewBox="0 0 358.8107379284369 247.19999999999996" height="247.19999999999996" width="358.8107379284369"><g id="textblocktransform"><svg viewBox="0 0 358.8107379284369 247.19999999999996" height="247.19999999999996" width="358.8107379284369" id="textblock"><g><svg viewBox="0 0 358.8107379284369 247.19999999999996" height="247.19999999999996" width="358.8107379284369"><path d="M357.971 53.02C356.284 27.36 351.476 20.227 351.476 20.227 336.716-6.202 318.296-0.506 301.748 3.292 272.532 3.446 243.434 9.091 214.285 12.119 153.103 12.581 91.398 4.986 30.52 23.717 24.802 29.464-5.933 24.846 1.017 56.304 2.839 69.39 9.485 83.913 9.283 95.922 10.194 98.026 11.459 93.202 11.999 96.23 13.888 104.39 16.975 100.541 19.505 105.365 15.979 118.246 18.51 128.971 20.922 140.21 16.671 143.135 11.223 141.749 8.777 151.449 8.524 158.479 7.157 157.145 5.656 156.837 4.56 156.632 2.35 157.402 2.721 159.608 3.986 167.152-1.446 171.514 1.962 178.904-0.383 186.91 3.581 193.838 3.041 202.511 2.974 204.255 3.345 205.744 3.935 206.154 6.55 208.361 2.738 212.672 3.143 217.342 29.963 249.262 59.062 227.195 86.54 241.872 93.676 231.608 88.311 245.516 91.162 243.36 93.389 240.846 95.008 251.263 97.522 245.362 97.91 243.668 97.319 239.665 98.702 240.435 99.428 240.846 100.069 240.743 100.17 238.382 100.322 234.841 98.989 237.048 98.635 235.201 102.464 225.861 101.519 248.081 105.112 247.158 104.944 244.438 103.898 240.538 106.04 241.051 108.166 237.151 108.233 233.918 110.122 242.693 110.19 244.592 110.527 245.926 111.067 246.85 116.971 237.305 122.841 250.237 129.032 245.926 132.827 241.205 136.471 248.492 140.317 246.696 141.666 245.259 143.033 242.693 144.332 247.004 160.239 247.928 177.191 244.079 192.272 247.158 232.571 241.41 275.636 249.518 318.127 241.923 328.147 238.998 338.555 234.841 348.322 231.506 348.322 231.506 356.233 222.371 356.233 181.316S357.92 145.393 358.173 112.703C358.426 80.013 359.607 78.679 357.92 53.02Z" opacity="1" fill="#fe0039" data-fill-palette-color="tertiary"></path><g transform="matrix(1,0,0,1,55.76832,26.230666666666668)"><svg width="247.27409792843687" viewBox="1.399999976158142 -34.95000076293945 44.94999694824219 35.400001525878906" height="194.73866666666663" data-palette-color="#0a1627"><path d="M8.25-34.5L13.25-34.5 13.25-7.15Q13.25-3.4 11.45-1.48 9.65 0.45 6.35 0.45L6.35 0.45Q5.65 0.45 4.7 0.38 3.75 0.3 2.88 0.15 2 0 1.4-0.25L1.4-0.25 1.95-3.7 4.45-3.7Q8.25-3.7 8.25-7.3L8.25-7.3 8.25-34.5ZM33.65-34.95L33.65-34.95Q37.75-34.95 40.27-34.08 42.8-33.2 43.95-31.03 45.1-28.85 45.1-24.95L45.1-24.95Q45.1-22.2 44.45-20.35 43.8-18.5 42.42-17.45 41.05-16.4 38.7-16.1L38.7-16.1 38.7-15.85Q39.55-15.65 40.4-15.05 41.25-14.45 42-13.43 42.75-12.4 43.1-10.85L43.1-10.85 46.35 0 41.05 0 38.05-10.75Q37.45-12.65 36.4-13.45 35.35-14.25 33.65-14.25L33.65-14.25Q30.5-14.25 28.25-14.28 26-14.3 24.47-14.35 22.95-14.4 22-14.4L22-14.4 22.15-18.4 33.55-18.4Q36-18.45 37.4-18.98 38.8-19.5 39.42-20.85 40.05-22.2 40.05-24.65L40.05-24.65Q40.05-27.1 39.42-28.43 38.8-29.75 37.4-30.28 36-30.8 33.55-30.8L33.55-30.8Q29.35-30.8 26.3-30.75 23.25-30.7 22.2-30.7L22.2-30.7 21.5-34.5Q23.4-34.7 25.1-34.8 26.8-34.9 28.82-34.93 30.85-34.95 33.65-34.95ZM21.5-34.5L26.45-34.5 26.45 0 21.5 0 21.5-34.5Z" opacity="1" transform="matrix(1,0,0,1,0,0)" fill="#0a1627" class="undefined-text-0" data-fill-palette-color="quaternary" id="text-0"></path></svg></g></svg></g></svg></g></svg></g><g></g></svg></g><defs></defs></svg><rect width="358.8107379284369" height="247.19999999999996" fill="none" stroke="none" visibility="hidden"></rect></g></svg></g></svg>